# This file uses centimeters as units for non-parametric coordinates.

mtllib Box_Fuer_Jan.mtl
g default
v -9.536261 -7.809040 -10.884225
v 9.480158 -7.809040 -10.884225
v 9.480158 -7.809040 10.884225
v -9.536261 -7.809040 10.884225
v 3.171526 2.021134 -10.884225
v -0.028051 3.771986 -10.884225
v -3.227629 2.021134 -10.884225
v -9.536261 6.826481 -10.884225
v 9.480158 6.826481 -10.884225
v -9.536261 6.826481 10.884225
v 9.480158 6.826481 10.884225
v -0.028051 0.270283 10.884225
v -3.227629 2.021134 10.884225
v -0.028051 3.771986 10.884225
v 3.171526 2.021134 10.884225
v -0.028051 0.270283 -10.884225
v 3.171526 2.021134 -9.850801
v -0.028051 3.771986 -9.850801
v -3.227629 2.021134 -9.850801
v -3.227629 2.021134 9.850801
v -0.028051 0.270283 9.850801
v -0.028051 3.771986 9.850801
v 3.171526 2.021134 9.850801
v -0.028051 0.270283 -9.850801
v 0.019655 7.622796 10.884225
v 0.019655 7.622796 -10.884225
v -0.076017 7.622796 -10.884225
v -0.076017 7.622796 10.884225
v -8.870546 6.826481 10.122167
v 8.814444 6.826481 10.122167
v 8.814444 6.826481 -10.122167
v -8.870546 6.826481 -10.122167
v 9.691385 -3.685631 9.364517
v 9.691385 -4.586410 9.364517
v 9.691385 -5.487190 9.364517
v 9.691385 -6.387970 9.364517
v 9.691385 -7.288750 9.364517
v 9.691385 -3.685631 8.463737
v 9.691385 -3.908679 9.141469
v 9.691385 -5.487190 9.141469
v 9.691385 -7.065701 9.141469
v 9.691385 -7.288750 8.463737
v 9.691385 -3.685631 7.562958
v 9.691385 -3.908679 7.562958
v 9.691385 -7.065701 7.562958
v 9.691385 -7.288750 7.562958
v 9.691385 -3.685631 6.662178
v 9.691385 -3.908679 5.984447
v 9.691385 -5.487190 5.984447
v 9.691385 -7.065701 5.984447
v 9.691385 -7.288750 6.662178
v 9.691385 -3.685631 5.761398
v 9.691385 -4.586410 5.761398
v 9.691385 -5.487190 5.761398
v 9.691385 -6.387970 5.761398
v 9.691385 -7.288750 5.761398
v 9.727877 -5.509807 8.942803
v 9.727877 -6.916838 8.942803
v 9.727877 -5.509807 7.535773
v 9.727877 -6.916838 7.535773
v 9.727877 -4.102261 7.544332
v 9.727877 -5.509291 7.544332
v 9.727877 -4.102261 6.137300
v 9.727877 -5.509291 6.137300
v -1.939123 7.717562 10.961936
v -1.302099 7.717562 10.961936
v -0.665075 7.717562 10.961936
v -0.028051 7.717562 10.961936
v 0.608973 7.717562 10.961936
v 1.245996 7.717562 10.961936
v 1.883020 7.717562 10.961936
v -1.939123 7.717562 -10.961936
v -1.302099 7.717562 -10.961936
v -0.665075 7.717562 -10.961936
v -0.028051 7.717562 -10.961936
v 0.608973 7.717562 -10.961936
v 1.245996 7.717562 -10.961936
v 1.883020 7.717562 -10.961936
v -1.939123 5.791234 10.961936
v -1.302099 5.174827 10.961936
v -0.665075 5.791235 10.961936
v -0.028051 5.174827 10.961936
v 0.608973 5.791235 10.961936
v 1.245996 5.174827 10.961936
v 1.883020 5.791234 10.961936
v -1.939123 5.791234 -10.961936
v -1.302099 5.174827 -10.961936
v -0.665075 5.791235 -10.961936
v -0.028051 5.174827 -10.961936
v 0.608973 5.791235 -10.961936
v 1.245996 5.174827 -10.961936
v 1.883020 5.791234 -10.961936
v -1.939123 7.782246 11.024493
v -1.302099 7.809040 11.050406
v -1.302099 7.809040 -11.050406
v -1.939123 7.782246 -11.024493
v -0.665075 7.809040 11.050406
v -0.665075 7.809040 -11.050406
v -0.028051 7.809040 11.050406
v -0.028051 7.809040 -11.050406
v 0.608973 7.809040 11.050406
v 0.608973 7.809040 -11.050406
v 1.245996 7.809040 11.050406
v 1.245996 7.809040 -11.050406
v 1.883020 7.782246 11.024493
v 1.883020 7.782246 -11.024493
v -1.939123 5.791234 11.087050
v -1.302099 5.174827 11.087050
v -0.665075 5.791235 11.087050
v -0.028051 5.174827 11.087050
v 0.608973 5.791235 11.087050
v 1.245996 5.174827 11.087050
v 1.883020 5.791234 11.087050
v -1.302099 5.174827 -11.087050
v -1.939123 5.791234 -11.087050
v -0.665075 5.791235 -11.087050
v -0.028051 5.174827 -11.087050
v 0.608973 5.791235 -11.087050
v 1.245996 5.174827 -11.087050
v 1.883020 5.791234 -11.087050
v -9.691389 -3.685631 -9.411740
v -9.691389 -4.586410 -9.411740
v -9.691389 -5.487190 -9.411740
v -9.691389 -6.387970 -9.411740
v -9.691389 -7.288750 -9.411740
v -9.691389 -3.685631 -8.510961
v -9.691389 -3.908679 -9.188692
v -9.691389 -5.487190 -9.188692
v -9.691389 -7.065701 -9.188692
v -9.691389 -7.288750 -8.510961
v -9.691389 -3.685631 -7.610181
v -9.691389 -3.908679 -7.610181
v -9.691389 -7.065701 -7.610181
v -9.691389 -7.288750 -7.610181
v -9.691389 -3.685631 -6.709402
v -9.691389 -3.908679 -6.031670
v -9.691389 -5.487190 -6.031670
v -9.691389 -7.065701 -6.031670
v -9.691389 -7.288750 -6.709402
v -9.691389 -3.685631 -5.808622
v -9.691389 -4.586410 -5.808622
v -9.691389 -5.487190 -5.808622
v -9.691389 -6.387970 -5.808622
v -9.691389 -7.288750 -5.808622
v -9.727877 -5.509807 -8.990026
v -9.727877 -6.916838 -8.990026
v -9.727877 -5.509807 -7.582996
v -9.727877 -6.916838 -7.582996
v -9.727877 -4.102261 -7.591555
v -9.727877 -5.509291 -7.591555
v -9.727877 -4.102261 -6.184524
v -9.727877 -5.509291 -6.184524
vt 0.375000 0.750000
vt 0.625000 0.750000
vt 0.625000 1.000000
vt 0.375000 1.000000
vt 0.542063 0.582084
vt 0.500000 0.552176
vt 0.457937 0.582084
vt 0.375000 0.500000
vt 0.625000 0.500000
vt 0.375000 0.250000
vt 0.625000 0.250000
vt 0.625000 0.000000
vt 0.875000 0.000000
vt 0.875000 0.250000
vt 0.375000 0.000000
vt 0.542063 0.167916
vt 0.500000 0.138009
vt 0.457937 0.167916
vt 0.500000 0.197824
vt 0.125000 0.000000
vt 0.125000 0.250000
vt 0.500000 0.611991
vt 0.000000 0.000000
vt 1.000000 0.000000
vt 1.000000 1.000000
vt 0.000000 1.000000
vt 0.000000 0.000000
vt 1.000000 0.000000
vt 1.000000 1.000000
vt 0.000000 1.000000
vt 0.000000 0.000000
vt 1.000000 0.000000
vt 1.000000 1.000000
vt 0.000000 1.000000
vt 0.000000 0.000000
vt 1.000000 0.000000
vt 1.000000 1.000000
vt 0.000000 1.000000
vt 0.000000 0.000000
vt 1.000000 0.000000
vt 1.000000 1.000000
vt 0.000000 1.000000
vt 0.000000 0.000000
vt 1.000000 0.000000
vt 1.000000 1.000000
vt 0.000000 1.000000
vt 0.000000 0.000000
vt 1.000000 0.000000
vt 1.000000 1.000000
vt 0.000000 1.000000
vt 0.000000 0.000000
vt 1.000000 0.000000
vt 1.000000 1.000000
vt 0.000000 1.000000
vt 0.000000 0.000000
vt 1.000000 0.000000
vt 1.000000 1.000000
vt 0.000000 1.000000
vt 0.000000 0.000000
vt 1.000000 0.000000
vt 1.000000 1.000000
vt 0.000000 1.000000
vt 0.375000 0.250000
vt 0.625000 0.250000
vt 0.625000 0.500000
vt 0.375000 0.500000
vt 0.000000 0.000000
vt 0.250000 0.000000
vt 0.250000 0.250000
vt 0.000000 0.250000
vt 0.500000 0.000000
vt 0.500000 0.250000
vt 0.750000 0.000000
vt 0.750000 0.250000
vt 1.000000 0.000000
vt 1.000000 0.250000
vt 0.250000 0.500000
vt 0.000000 0.500000
vt 1.000000 0.500000
vt 0.750000 0.500000
vt 0.250000 0.750000
vt 0.000000 0.750000
vt 1.000000 0.750000
vt 0.750000 0.750000
vt 0.250000 1.000000
vt 0.000000 1.000000
vt 0.500000 0.750000
vt 0.500000 1.000000
vt 0.750000 1.000000
vt 1.000000 1.000000
vt 0.000000 0.000000
vt 1.000000 0.000000
vt 1.000000 1.000000
vt 0.000000 1.000000
vt 0.000000 0.000000
vt 1.000000 0.000000
vt 1.000000 1.000000
vt 0.000000 1.000000
vt 0.000000 0.000000
vt 0.166667 0.000000
vt 0.166667 1.000000
vt 0.000000 1.000000
vt 0.333333 0.000000
vt 0.333333 1.000000
vt 0.500000 0.000000
vt 0.500000 1.000000
vt 0.666667 0.000000
vt 0.666667 1.000000
vt 0.833333 0.000000
vt 0.833333 1.000000
vt 1.000000 0.000000
vt 1.000000 1.000000
vt 0.000000 0.000000
vt 1.000000 0.000000
vt 1.000000 1.000000
vt 0.000000 1.000000
vt 0.000000 0.000000
vt 1.000000 0.000000
vt 1.000000 1.000000
vt 0.000000 1.000000
vt 0.000000 0.000000
vt 1.000000 0.000000
vt 1.000000 1.000000
vt 0.000000 1.000000
vt 0.000000 0.000000
vt 1.000000 0.000000
vt 1.000000 1.000000
vt 0.000000 1.000000
vt 0.000000 0.000000
vt 1.000000 0.000000
vt 1.000000 1.000000
vt 0.000000 1.000000
vt 0.000000 0.000000
vt 1.000000 0.000000
vt 1.000000 1.000000
vt 0.000000 1.000000
vt 0.000000 0.000000
vt 1.000000 0.000000
vt 1.000000 1.000000
vt 0.000000 1.000000
vt 0.000000 0.000000
vt 1.000000 0.000000
vt 1.000000 1.000000
vt 0.000000 1.000000
vt 0.000000 0.000000
vt 1.000000 0.000000
vt 1.000000 1.000000
vt 0.000000 1.000000
vt 0.000000 0.000000
vt 1.000000 0.000000
vt 1.000000 1.000000
vt 0.000000 1.000000
vt 0.000000 0.000000
vt 1.000000 0.000000
vt 1.000000 1.000000
vt 0.000000 1.000000
vt 0.000000 0.000000
vt 1.000000 0.000000
vt 1.000000 1.000000
vt 0.000000 1.000000
vt 0.000000 0.000000
vt 0.000000 1.000000
vt 0.166667 1.000000
vt 0.166667 0.000000
vt 0.333333 1.000000
vt 0.333333 0.000000
vt 0.500000 1.000000
vt 0.500000 0.000000
vt 0.666667 1.000000
vt 0.666667 0.000000
vt 0.833333 1.000000
vt 0.833333 0.000000
vt 1.000000 1.000000
vt 1.000000 0.000000
vt 0.000000 0.000000
vt 0.000000 1.000000
vt 1.000000 1.000000
vt 1.000000 0.000000
vt 0.000000 0.000000
vt 0.000000 1.000000
vt 1.000000 1.000000
vt 1.000000 0.000000
vt 0.000000 0.000000
vt 0.000000 1.000000
vt 1.000000 1.000000
vt 1.000000 0.000000
vt 0.000000 0.000000
vt 0.000000 1.000000
vt 1.000000 1.000000
vt 1.000000 0.000000
vt 0.000000 0.000000
vt 0.000000 1.000000
vt 1.000000 1.000000
vt 1.000000 0.000000
vt 0.000000 0.000000
vt 0.000000 1.000000
vt 1.000000 1.000000
vt 1.000000 0.000000
vt 0.000000 0.000000
vt 0.000000 1.000000
vt 1.000000 1.000000
vt 1.000000 0.000000
vt 0.000000 0.000000
vt 0.000000 1.000000
vt 1.000000 1.000000
vt 1.000000 0.000000
vt 0.000000 0.000000
vt 0.000000 1.000000
vt 1.000000 1.000000
vt 1.000000 0.000000
vt 0.000000 0.000000
vt 0.000000 1.000000
vt 1.000000 1.000000
vt 1.000000 0.000000
vt 0.000000 0.000000
vt 0.000000 1.000000
vt 1.000000 1.000000
vt 1.000000 0.000000
vt 0.000000 0.000000
vt 0.000000 1.000000
vt 1.000000 1.000000
vt 1.000000 0.000000
vt 0.000000 1.000000
vt 0.000000 0.000000
vt 1.000000 0.000000
vt 1.000000 1.000000
vt 1.000000 0.000000
vt 1.000000 1.000000
vt 0.000000 1.000000
vt 1.000000 1.000000
vt 0.000000 1.000000
vt 1.000000 1.000000
vt 0.000000 1.000000
vt 1.000000 1.000000
vt 0.000000 1.000000
vt 1.000000 1.000000
vt 0.000000 1.000000
vt 1.000000 1.000000
vt 0.000000 1.000000
vt 0.000000 0.000000
vt 1.000000 1.000000
vt 0.000000 1.000000
vt 0.000000 0.000000
vt 1.000000 1.000000
vt 0.000000 1.000000
vt 1.000000 1.000000
vt 0.000000 1.000000
vt 1.000000 1.000000
vt 0.000000 1.000000
vt 1.000000 1.000000
vt 0.000000 1.000000
vt 1.000000 0.000000
vt 1.000000 1.000000
vt 0.000000 1.000000
vt 0.000000 0.000000
vt 0.250000 0.000000
vt 0.250000 0.250000
vt 0.000000 0.250000
vt 0.500000 0.000000
vt 0.500000 0.250000
vt 0.750000 0.000000
vt 0.750000 0.250000
vt 1.000000 0.000000
vt 1.000000 0.250000
vt 0.250000 0.500000
vt 0.000000 0.500000
vt 1.000000 0.500000
vt 0.750000 0.500000
vt 0.250000 0.750000
vt 0.000000 0.750000
vt 1.000000 0.750000
vt 0.750000 0.750000
vt 0.250000 1.000000
vt 0.000000 1.000000
vt 0.500000 0.750000
vt 0.500000 1.000000
vt 0.750000 1.000000
vt 1.000000 1.000000
vt 0.000000 0.000000
vt 1.000000 0.000000
vt 1.000000 1.000000
vt 0.000000 1.000000
vt 0.000000 0.000000
vt 1.000000 0.000000
vt 1.000000 1.000000
vt 0.000000 1.000000
vn 0.000000 -1.000000 0.000000
vn 0.000000 -1.000000 0.000000
vn 0.000000 -1.000000 0.000000
vn 0.000000 -1.000000 0.000000
vn 0.000000 0.000000 -1.000000
vn 0.000000 0.000000 -1.000000
vn 0.000000 0.000000 -1.000000
vn 0.000000 0.000000 -1.000000
vn 0.000000 0.000000 -1.000000
vn 0.000000 1.000000 -0.000000
vn 0.000000 1.000000 -0.000000
vn 0.000000 1.000000 0.000000
vn 0.000000 1.000000 0.000000
vn 1.000000 0.000000 0.000000
vn 1.000000 0.000000 0.000000
vn 1.000000 0.000000 0.000000
vn 1.000000 0.000000 0.000000
vn 0.000000 0.000000 1.000000
vn 0.000000 0.000000 1.000000
vn 0.000000 0.000000 1.000000
vn 0.000000 0.000000 1.000000
vn 0.000000 0.000000 1.000000
vn 0.000000 0.000000 1.000000
vn 0.000000 0.000000 1.000000
vn 0.000000 0.000000 1.000000
vn -1.000000 0.000000 0.000000
vn -1.000000 0.000000 0.000000
vn -1.000000 0.000000 0.000000
vn -1.000000 0.000000 0.000000
vn 0.000000 0.000000 -1.000000
vn 0.000000 0.000000 -1.000000
vn 0.000000 0.000000 -1.000000
vn -0.480041 -0.877246 0.000000
vn -0.480041 -0.877246 0.000000
vn -0.480041 -0.877246 0.000000
vn -0.480041 -0.877246 0.000000
vn 0.480041 -0.877246 0.000000
vn 0.480041 -0.877246 0.000000
vn 0.480041 -0.877246 0.000000
vn 0.480041 -0.877246 0.000000
vn 0.480041 0.877246 0.000000
vn 0.480041 0.877246 0.000000
vn 0.480041 0.877246 0.000000
vn 0.480041 0.877246 0.000000
vn 0.480041 -0.877246 0.000000
vn 0.480041 -0.877246 0.000000
vn 0.480041 -0.877246 0.000000
vn 0.480041 -0.877246 0.000000
vn -0.480041 0.877246 0.000000
vn -0.480041 0.877246 0.000000
vn -0.480041 0.877246 0.000000
vn -0.480041 0.877246 0.000000
vn -0.480041 -0.877246 0.000000
vn -0.480041 -0.877246 0.000000
vn -0.480041 -0.877246 0.000000
vn -0.480041 -0.877246 0.000000
vn -0.480041 0.877246 0.000000
vn -0.480041 0.877246 0.000000
vn -0.480041 0.877246 0.000000
vn -0.480041 0.877246 0.000000
vn 0.480041 0.877246 0.000000
vn 0.480041 0.877246 0.000000
vn 0.480041 0.877246 0.000000
vn 0.480041 0.877246 0.000000
vn 0.000000 0.000000 -1.000000
vn 0.000000 0.000000 -1.000000
vn 0.000000 0.000000 -1.000000
vn 0.000000 0.000000 -1.000000
vn 0.000000 0.000000 1.000000
vn 0.000000 0.000000 1.000000
vn 0.000000 0.000000 1.000000
vn 0.000000 0.000000 1.000000
vn 0.083876 0.996476 0.000000
vn 0.083876 0.996476 0.000000
vn 0.083876 0.996476 0.000000
vn 0.083876 0.996476 0.000000
vn -0.083878 0.996476 0.000000
vn -0.083878 0.996476 0.000000
vn -0.083878 0.996476 0.000000
vn -0.083878 0.996476 0.000000
vn 0.000000 1.000000 -0.000000
vn 0.000000 1.000000 -0.000000
vn 0.000000 1.000000 0.000000
vn 0.000000 1.000000 0.000000
vn 1.000000 0.000019 0.000000
vn 1.000000 0.000001 0.000000
vn 1.000000 0.000014 0.000000
vn 1.000000 0.000001 0.000000
vn 1.000000 0.000000 0.000000
vn 1.000000 0.000000 0.000000
vn 1.000000 -0.000001 0.000000
vn 1.000000 -0.000010 0.000000
vn 1.000000 -0.000014 0.000000
vn 1.000000 -0.000001 0.000000
vn 1.000000 0.000000 0.000000
vn 1.000000 0.000000 0.000000
vn 1.000000 0.000000 0.000000
vn 1.000000 0.000000 0.000000
vn 1.000000 0.000014 0.000000
vn 1.000000 0.000001 0.000000
vn 1.000000 -0.000001 0.000000
vn 1.000000 -0.000010 0.000000
vn 1.000000 0.000001 0.000000
vn 1.000000 0.000019 0.000000
vn 1.000000 0.000000 0.000000
vn 1.000000 0.000000 0.000000
vn 1.000000 -0.000001 0.000000
vn 1.000000 -0.000014 0.000000
vn 1.000000 0.000000 0.000000
vn 1.000000 0.000000 0.000000
vn 1.000000 0.000000 0.000000
vn 1.000000 0.000000 0.000000
vn 1.000000 0.000000 0.000000
vn 1.000000 0.000000 0.000000
vn 1.000000 0.000000 0.000000
vn 1.000000 0.000000 0.000000
vn -0.042023 0.999117 0.000000
vn -0.020738 0.999785 0.000000
vn -0.020738 0.999785 0.000000
vn -0.042023 0.999117 0.000000
vn 0.000000 1.000000 0.000000
vn 0.000000 1.000000 0.000000
vn 0.000000 1.000000 0.000000
vn 0.000000 1.000000 0.000000
vn 0.000000 1.000000 0.000000
vn 0.000000 1.000000 0.000000
vn 0.020738 0.999785 0.000000
vn 0.020738 0.999785 0.000000
vn 0.042023 0.999117 0.000000
vn 0.042023 0.999117 0.000000
vn -0.008994 0.018551 0.999787
vn -0.010410 0.021442 0.999716
vn -0.010410 0.021442 0.999716
vn -0.009012 0.018589 0.999787
vn 0.000000 0.015752 0.999876
vn 0.000000 0.015752 0.999876
vn 0.000000 0.015752 0.999876
vn 0.000000 0.015752 0.999876
vn 0.000000 0.015752 0.999876
vn 0.000000 0.015752 0.999876
vn 0.008994 0.018551 0.999787
vn 0.009012 0.018589 0.999787
vn 0.010410 0.021442 0.999716
vn 0.010410 0.021442 0.999716
vn -0.010410 0.021442 -0.999716
vn -0.008994 0.018551 -0.999787
vn -0.009012 0.018589 -0.999787
vn -0.010410 0.021442 -0.999716
vn 0.000000 0.015752 -0.999876
vn 0.000000 0.015752 -0.999876
vn 0.000000 0.015752 -0.999876
vn 0.000000 0.015752 -0.999876
vn 0.000000 0.015752 -0.999876
vn 0.000000 0.015752 -0.999876
vn 0.008994 0.018551 -0.999787
vn 0.009012 0.018589 -0.999787
vn 0.010410 0.021442 -0.999716
vn 0.010410 0.021442 -0.999716
vn 0.000000 -1.000000 0.000000
vn 0.000000 -1.000000 0.000000
vn 0.000000 -1.000000 0.000000
vn 0.000000 -1.000000 0.000000
vn 0.000000 -1.000000 0.000000
vn 0.000000 -1.000000 0.000000
vn 0.000000 -1.000000 0.000000
vn 0.000000 -1.000000 0.000000
vn 0.000000 -1.000000 0.000000
vn 0.000000 -1.000000 0.000000
vn 0.000000 -1.000000 0.000000
vn 0.000000 -1.000000 0.000000
vn 0.000000 -1.000000 0.000000
vn 0.000000 -1.000000 0.000000
vn 0.000001 0.000000 -1.000000
vn 0.000001 0.000000 -1.000000
vn 0.000000 0.000000 -1.000000
vn 0.000000 0.000000 -1.000000
vn 0.000000 0.000000 -1.000000
vn 0.000000 0.000000 -1.000000
vn 0.000000 0.000000 -1.000000
vn 0.000000 0.000000 -1.000000
vn 0.000000 0.000000 -1.000000
vn 0.000000 0.000000 -1.000000
vn -0.000001 0.000000 -1.000000
vn -0.000001 0.000000 -1.000000
vn 0.000000 0.000000 -1.000000
vn 0.000000 0.000000 -1.000000
vn 0.000000 0.000000 1.000000
vn 0.000000 0.000000 1.000000
vn 0.000001 0.000000 1.000000
vn 0.000001 0.000000 1.000000
vn 0.000000 0.000000 1.000000
vn 0.000000 0.000000 1.000000
vn 0.000000 0.000000 1.000000
vn 0.000000 0.000000 1.000000
vn 0.000000 0.000000 1.000000
vn 0.000000 0.000000 1.000000
vn -0.000001 0.000000 1.000000
vn -0.000001 0.000000 1.000000
vn 0.000000 0.000000 1.000000
vn 0.000000 0.000000 1.000000
vn -1.000000 0.000003 0.000000
vn -1.000000 0.000003 0.000000
vn -1.000000 0.000003 0.000000
vn -1.000000 0.000003 0.000000
vn 1.000000 0.000015 0.000000
vn 1.000000 0.000015 0.000000
vn 1.000000 0.000015 0.000000
vn 1.000000 0.000015 0.000000
vn -1.000000 0.000000 0.000000
vn -1.000000 0.000000 0.000000
vn -0.695381 -0.718641 0.000000
vn -0.695381 -0.718641 0.000000
vn -0.695381 -0.718641 0.000000
vn -0.695381 -0.718641 0.000000
vn 0.695381 -0.718641 0.000000
vn 0.695381 -0.718641 0.000000
vn 0.695381 -0.718641 0.000000
vn 0.695381 -0.718641 0.000000
vn -0.695383 -0.718639 0.000000
vn -0.695383 -0.718639 0.000000
vn -0.695383 -0.718639 0.000000
vn -0.695383 -0.718639 0.000000
vn 0.695381 -0.718641 0.000000
vn 0.695381 -0.718641 0.000000
vn 0.695381 -0.718641 0.000000
vn 0.695381 -0.718641 0.000000
vn -0.695381 -0.718641 0.000000
vn -0.695381 -0.718641 0.000000
vn -0.695381 -0.718641 0.000000
vn -0.695381 -0.718641 0.000000
vn 0.695381 -0.718641 0.000000
vn 0.695381 -0.718641 0.000000
vn 0.695381 -0.718641 0.000000
vn 0.695381 -0.718641 0.000000
vn 1.000000 0.000000 0.000000
vn 1.000000 0.000000 0.000000
vn -0.695381 -0.718641 0.000000
vn -0.695381 -0.718641 0.000000
vn -0.695381 -0.718641 0.000000
vn -0.695381 -0.718641 0.000000
vn -1.000000 0.000000 0.000000
vn -1.000000 0.000000 0.000000
vn 0.695381 -0.718641 0.000000
vn 0.695381 -0.718641 0.000000
vn 0.695381 -0.718641 0.000000
vn 0.695381 -0.718641 0.000000
vn -0.695383 -0.718639 0.000000
vn -0.695383 -0.718639 0.000000
vn -0.695383 -0.718639 0.000000
vn -0.695383 -0.718639 0.000000
vn 0.695381 -0.718641 0.000000
vn 0.695381 -0.718641 0.000000
vn 0.695381 -0.718641 0.000000
vn 0.695381 -0.718641 0.000000
vn -0.695381 -0.718641 0.000000
vn -0.695381 -0.718641 0.000000
vn -0.695381 -0.718641 0.000000
vn -0.695381 -0.718641 0.000000
vn 1.000000 0.000000 0.000000
vn 1.000000 0.000000 0.000000
vn 0.695381 -0.718641 0.000000
vn 0.695381 -0.718641 0.000000
vn 0.695381 -0.718641 0.000000
vn 0.695381 -0.718641 0.000000
vn -1.000000 0.000000 0.000000
vn -1.000000 0.000000 0.000000
vn -1.000000 0.000000 0.000000
vn -1.000000 0.000000 0.000000
vn -1.000000 0.000000 0.000000
vn -1.000000 0.000000 0.000000
vn -1.000000 -0.000000 0.000000
vn -1.000000 -0.000002 0.000000
vn -1.000000 -0.000002 0.000000
vn -1.000000 -0.000000 0.000000
vn -1.000000 0.000003 0.000000
vn -1.000000 0.000003 0.000000
vn -1.000000 -0.000007 0.000000
vn -1.000000 -0.000007 0.000000
vn -1.000000 0.000001 0.000000
vn -1.000000 0.000006 0.000000
vn -1.000000 -0.000013 0.000000
vn -1.000000 -0.000004 0.000000
vn -1.000000 0.000000 0.000000
vn -1.000000 0.000000 0.000000
vn -1.000000 0.000000 0.000000
vn -1.000000 0.000000 0.000000
vn -1.000000 -0.000000 0.000000
vn -1.000000 -0.000002 0.000000
vn -1.000000 0.000000 0.000000
vn -1.000000 0.000000 0.000000
vn -1.000000 0.000000 0.000000
vn -1.000000 0.000000 0.000000
vn -1.000000 0.000000 0.000000
vn -1.000000 0.000000 0.000000
vn -1.000000 0.000000 0.000000
vn -1.000000 0.000000 0.000000
s off
g pCube3
usemtl lambert2SG
f 1/1/1 2/2/2 3/3/3 4/4/4
s 1
f 5/5/5 6/6/6 7/7/7 8/8/8 9/9/9
s 2
usemtl lambert4SG
f 29/63/10 30/64/11 31/65/12 32/66/13
s off
usemtl lambert2SG
f 3/12/14 2/13/15 9/14/16 11/11/17
s 3
f 4/15/18 3/12/19 15/16/20 12/17/21 13/18/22 10/10/23
f 3/12/19 11/11/24 10/10/23 13/18/22 14/19/25 15/16/20
s off
f 1/20/26 4/15/27 10/10/28 8/21/29
s 1
f 8/8/8 7/7/7 16/22/30 5/5/5 9/9/9 2/2/31 1/1/32
s off
f 6/23/33 5/24/34 17/25/35 18/26/36
f 7/27/37 6/28/38 18/29/39 19/30/40
f 13/31/41 12/32/42 21/33/43 20/34/44
f 14/35/45 13/36/46 20/37/47 22/38/48
f 12/39/49 15/40/50 23/41/51 21/42/52
f 15/43/53 14/44/54 22/45/55 23/46/56
f 5/47/57 16/48/58 24/49/59 17/50/60
f 16/51/61 7/52/62 19/53/63 24/54/64
usemtl lambert4SG
f 18/26/65 17/50/66 24/54/67 19/30/68
f 21/42/69 23/46/70 22/38/71 20/34/72
usemtl lambert2SG
f 11/55/73 9/56/74 26/57/75 25/58/76
f 8/59/77 10/60/78 28/61/79 27/62/80
s 2
f 10/10/81 11/11/82 30/64/11 29/63/10
f 11/11/82 9/9/83 31/65/12 30/64/11
f 9/9/83 8/8/84 32/66/13 31/65/12
f 8/8/84 10/10/81 29/63/10 32/66/13
s 4
usemtl lambert5SG
f 33/67/85 34/68/86 39/69/87 38/70/88
f 34/68/86 35/71/89 40/72/90 39/69/87
f 35/71/89 36/73/91 41/74/92 40/72/90
f 36/73/91 37/75/93 42/76/94 41/74/92
f 38/70/88 39/69/87 44/77/95 43/78/96
f 41/74/92 42/76/94 46/79/97 45/80/98
f 43/78/96 44/77/95 48/81/99 47/82/100
f 45/80/98 46/79/97 51/83/101 50/84/102
f 47/82/100 48/81/99 53/85/103 52/86/104
f 48/81/99 49/87/105 54/88/106 53/85/103
f 49/87/105 50/84/102 55/89/107 54/88/106
f 50/84/102 51/83/101 56/90/108 55/89/107
s off
f 57/91/109 58/92/110 60/93/111 59/94/112
f 61/95/113 62/96/114 64/97/115 63/98/116
s 5
usemtl lambert3SG
f 93/99/117 94/100/118 95/101/119 96/102/120
f 94/100/118 97/103/121 98/104/122 95/101/119
f 97/103/121 99/105/123 100/106/124 98/104/122
f 99/105/123 101/107/125 102/108/126 100/106/124
f 101/107/125 103/109/127 104/110/128 102/108/126
f 103/109/127 105/111/129 106/112/130 104/110/128
s 6
f 94/113/131 93/114/132 107/115/133 108/116/134
f 97/117/135 94/118/131 108/119/134 109/120/136
f 99/121/137 97/122/135 109/123/136 110/124/138
f 101/125/139 99/126/137 110/127/138 111/128/140
f 103/129/141 101/130/139 111/131/140 112/132/142
f 105/133/143 103/134/141 112/135/142 113/136/144
s 7
f 96/137/145 95/138/146 114/139/147 115/140/148
f 95/141/146 98/142/149 116/143/150 114/144/147
f 98/145/149 100/146/151 117/147/152 116/148/150
f 100/149/151 102/150/153 118/151/154 117/152/152
f 102/153/153 104/154/155 119/155/156 118/156/154
f 104/157/155 106/158/157 120/159/158 119/160/156
s 8
f 65/161/159 72/162/160 73/163/161 66/164/162
f 66/164/162 73/163/161 74/165/163 67/166/164
f 67/166/164 74/165/163 75/167/165 68/168/166
f 68/168/166 75/167/165 76/169/167 69/170/168
f 69/170/168 76/169/167 77/171/169 70/172/170
f 70/172/170 77/171/169 78/173/171 71/174/172
s 9
f 66/175/173 80/176/174 79/177/175 65/178/176
f 67/179/177 81/180/178 80/181/174 66/182/173
f 68/183/179 82/184/180 81/185/178 67/186/177
f 69/187/181 83/188/182 82/189/180 68/190/179
f 70/191/183 84/192/184 83/193/182 69/194/181
f 71/195/185 85/196/186 84/197/184 70/198/183
s 10
f 72/199/187 86/200/188 87/201/189 73/202/190
f 73/203/190 87/204/189 88/205/191 74/206/192
f 74/207/192 88/208/191 89/209/193 75/210/194
f 75/211/194 89/212/193 90/213/195 76/214/196
f 76/215/196 90/216/195 91/217/197 77/218/198
f 77/219/198 91/220/197 92/221/199 78/222/200
s 11
f 72/223/201 65/224/202 93/99/203 96/102/204
s 12
f 71/225/205 78/226/206 106/112/207 105/111/208
s 11
f 65/227/202 79/228/209 107/115/210 93/114/203
s off
f 79/228/211 80/229/212 108/116/213 107/115/214
f 80/230/215 81/231/216 109/120/217 108/119/218
f 81/232/219 82/233/220 110/124/221 109/123/222
f 82/234/223 83/235/224 111/128/225 110/127/226
f 83/236/227 84/237/228 112/132/229 111/131/230
f 84/238/231 85/239/232 113/136/233 112/135/234
s 12
f 85/239/235 71/240/205 105/133/208 113/136/236
s off
f 87/241/237 86/242/238 115/140/239 114/139/240
s 11
f 86/242/241 72/243/201 96/137/204 115/140/242
s off
f 88/244/243 87/245/244 114/144/245 116/143/246
f 89/246/247 88/247/248 116/148/249 117/147/250
f 90/248/251 89/249/252 117/152/253 118/151/254
f 91/250/255 90/251/256 118/156/257 119/155/258
s 12
f 78/252/206 92/253/259 120/159/260 106/158/207
s off
f 92/253/261 91/254/262 119/160/263 120/159/264
s 13
usemtl lambert5SG
f 121/255/265 122/256/266 127/257/267 126/258/268
f 122/256/266 123/259/269 128/260/270 127/257/267
f 123/259/269 124/261/271 129/262/272 128/260/270
f 124/261/271 125/263/273 130/264/274 129/262/272
f 126/258/268 127/257/267 132/265/275 131/266/276
f 129/262/272 130/264/274 134/267/277 133/268/278
f 131/266/276 132/265/275 136/269/279 135/270/280
f 133/268/278 134/267/277 139/271/281 138/272/282
f 135/270/280 136/269/279 141/273/283 140/274/284
f 136/269/279 137/275/285 142/276/286 141/273/283
f 137/275/285 138/272/282 143/277/287 142/276/286
f 138/272/282 139/271/281 144/278/288 143/277/287
s off
f 145/279/289 146/280/290 148/281/291 147/282/292
f 149/283/293 150/284/294 152/285/295 151/286/296
