# This file uses centimeters as units for non-parametric coordinates.

mtllib Vent_Fuer_Jan.mtl
g default
v -8.527954 -0.206354 4.937890
v 8.527954 -0.206354 4.937890
v -8.527954 -0.206354 3.985179
v 8.527954 -0.206354 3.985179
v -8.527954 0.599380 4.937890
v 8.527954 0.599380 4.937890
v 8.527954 0.599380 3.985179
v -8.527954 0.599380 3.985179
v -11.374199 -1.344192 11.374198
v 11.374199 -1.344192 11.374198
v -11.374199 -1.344192 -11.374198
v 11.374199 -1.344192 -11.374198
v -8.527954 -1.344192 8.527954
v 8.527954 -1.344192 8.527954
v 8.527954 -1.344192 -8.527954
v -8.527954 -1.344192 -8.527954
v -11.374199 1.059763 11.374198
v 11.374199 1.059763 11.374198
v 8.527954 1.059763 8.527954
v -8.527954 1.059763 8.527954
v 11.374199 1.059762 -11.374198
v 8.527954 1.059762 -8.527954
v -11.374199 1.059763 -11.374198
v -8.527954 1.059763 -8.527954
v -3.262276 0.429749 -12.981513
v -3.262276 -0.179880 -12.981513
v -3.262276 -0.484694 -12.453559
v -3.262276 -0.179880 -11.925605
v -3.262276 0.429749 -11.925605
v -3.262276 0.734563 -12.453559
v -3.262276 0.734564 -13.509467
v -3.262276 -0.484694 -13.509467
v -3.262276 -1.094323 -12.453559
v -3.262276 -0.484694 -11.397651
v -3.262276 0.734563 -11.397651
v -3.262276 1.344192 -12.453559
v -9.679169 0.734564 -13.509467
v -9.679169 -0.484694 -13.509467
v -9.679169 -1.094323 -12.453559
v -9.679169 -0.484694 -11.397651
v -9.679169 0.734563 -11.397651
v -9.679169 1.344192 -12.453559
v -9.679169 0.429749 -12.981513
v -9.679169 -0.179880 -12.981513
v -9.679169 -0.484694 -12.453559
v -9.679169 -0.179880 -11.925605
v -9.679169 0.429749 -11.925605
v -9.679169 0.734563 -12.453559
v -3.262276 0.124934 -12.453559
v -9.679169 0.124934 -12.453559
v -8.527954 -0.206354 7.176325
v 8.527954 -0.206354 7.176325
v -8.527954 -0.206354 6.223614
v 8.527954 -0.206354 6.223614
v -8.527954 0.599380 7.176325
v 8.527954 0.599380 7.176325
v 8.527954 0.599380 6.223614
v -8.527954 0.599380 6.223614
v -8.527954 -0.206354 2.759146
v 8.527954 -0.206354 2.759146
v -8.527954 -0.206354 1.806435
v 8.527954 -0.206354 1.806435
v -8.527954 0.599380 2.759146
v 8.527954 0.599380 2.759146
v 8.527954 0.599380 1.806435
v -8.527954 0.599380 1.806435
v 9.381962 0.308886 -12.981513
v 9.381962 -0.300743 -12.981513
v 9.381962 -0.605557 -12.453559
v 9.381962 -0.300743 -11.925605
v 9.381962 0.308886 -11.925605
v 9.381962 0.613700 -12.453559
v 9.381962 0.613701 -13.509467
v 9.381962 -0.605557 -13.509467
v 9.381962 -1.215186 -12.453559
v 9.381962 -0.605557 -11.397651
v 9.381962 0.613700 -11.397651
v 9.381962 1.223329 -12.453559
v 2.965069 0.613701 -13.509467
v 2.965069 -0.605557 -13.509467
v 2.965069 -1.215186 -12.453559
v 2.965069 -0.605557 -11.397651
v 2.965069 0.613700 -11.397651
v 2.965069 1.223329 -12.453559
v 2.965069 0.308886 -12.981513
v 2.965069 -0.300743 -12.981513
v 2.965069 -0.605557 -12.453559
v 2.965069 -0.300743 -11.925605
v 2.965069 0.308886 -11.925605
v 2.965069 0.613700 -12.453559
v 9.381962 0.004071 -12.453559
v 2.965069 0.004071 -12.453559
v -8.527954 -0.206354 -1.926645
v 8.527954 -0.206354 -1.926645
v -8.527954 -0.206354 -2.879357
v 8.527954 -0.206354 -2.879357
v -8.527954 0.599380 -1.926645
v 8.527954 0.599380 -1.926645
v 8.527954 0.599380 -2.879357
v -8.527954 0.599380 -2.879357
v -8.527954 -0.206354 -6.522899
v 8.527954 -0.206354 -6.522899
v -8.527954 -0.206354 -7.475610
v 8.527954 -0.206354 -7.475610
v -8.527954 0.599380 -6.522899
v 8.527954 0.599380 -6.522899
v 8.527954 0.599380 -7.475610
v -8.527954 0.599380 -7.475610
v -8.527954 -0.206354 -4.403847
v 8.527954 -0.206354 -4.403847
v -8.527954 -0.206354 -5.356558
v 8.527954 -0.206354 -5.356558
v -8.527954 0.599380 -4.403847
v 8.527954 0.599380 -4.403847
v 8.527954 0.599380 -5.356558
v -8.527954 0.599380 -5.356558
v -8.527954 -0.206354 0.496028
v 8.527954 -0.206354 0.496028
v -8.527954 -0.206354 -0.456684
v 8.527954 -0.206354 -0.456684
v -8.527954 0.599380 0.496028
v 8.527954 0.599380 0.496028
v 8.527954 0.599380 -0.456684
v -8.527954 0.599380 -0.456684
vt 0.000000 0.000000
vt 1.000000 0.000000
vt 0.000000 1.000000
vt 1.000000 1.000000
vt 0.000000 0.000000
vt 1.000000 0.000000
vt 1.000000 1.000000
vt 0.000000 1.000000
vt 0.000000 0.000000
vt 1.000000 0.000000
vt 1.000000 1.000000
vt 0.000000 1.000000
vt 0.375000 0.250000
vt 0.625000 0.250000
vt 0.625000 0.250000
vt 0.375000 0.250000
vt 0.625000 0.500000
vt 0.625000 0.500000
vt 0.375000 0.500000
vt 0.375000 0.500000
vt 0.375000 0.250000
vt 0.375000 0.250000
vt 0.625000 0.250000
vt 0.625000 0.250000
vt 0.625000 0.500000
vt 0.625000 0.500000
vt 0.375000 0.500000
vt 0.375000 0.500000
vt 0.375000 0.250000
vt 0.625000 0.250000
vt 0.625000 0.250000
vt 0.375000 0.250000
vt 0.625000 0.500000
vt 0.625000 0.500000
vt 0.375000 0.500000
vt 0.375000 0.500000
vt 0.539063 0.088592
vt 0.460938 0.088592
vt 0.421875 0.020934
vt 0.578125 0.020934
vt 0.421875 0.156250
vt 0.343750 0.156250
vt 0.460938 0.223908
vt 0.421875 0.291566
vt 0.539063 0.223908
vt 0.578125 0.291566
vt 0.578125 0.156250
vt 0.656250 0.156250
vt 0.375000 0.312500
vt 0.416667 0.312500
vt 0.416667 0.688440
vt 0.375000 0.688440
vt 0.458333 0.312500
vt 0.458333 0.688440
vt 0.500000 0.312500
vt 0.500000 0.688440
vt 0.541667 0.312500
vt 0.541667 0.688440
vt 0.583333 0.312500
vt 0.583333 0.688440
vt 0.625000 0.312500
vt 0.625000 0.688440
vt 0.578125 0.979066
vt 0.421875 0.979066
vt 0.460938 0.911408
vt 0.539063 0.911408
vt 0.343750 0.843750
vt 0.421875 0.843750
vt 0.421875 0.708434
vt 0.460938 0.776092
vt 0.578125 0.708434
vt 0.539063 0.776092
vt 0.656250 0.843750
vt 0.578125 0.843750
vt 0.500000 0.150000
vt 0.500000 0.837500
vt 0.000000 0.000000
vt 1.000000 0.000000
vt 1.000000 1.000000
vt 0.000000 1.000000
vt 0.000000 0.000000
vt 0.000000 1.000000
vt 1.000000 1.000000
vt 1.000000 0.000000
vt 0.000000 0.000000
vt 1.000000 0.000000
vt 1.000000 1.000000
vt 0.000000 1.000000
vt 0.000000 0.000000
vt 1.000000 0.000000
vt 1.000000 1.000000
vt 0.000000 1.000000
vt 0.000000 0.000000
vt 0.000000 1.000000
vt 1.000000 1.000000
vt 1.000000 0.000000
vt 0.000000 0.000000
vt 1.000000 0.000000
vt 1.000000 1.000000
vt 0.000000 1.000000
vt 0.539063 0.088592
vt 0.460938 0.088592
vt 0.421875 0.020934
vt 0.578125 0.020934
vt 0.421875 0.156250
vt 0.343750 0.156250
vt 0.460938 0.223908
vt 0.421875 0.291566
vt 0.539063 0.223908
vt 0.578125 0.291566
vt 0.578125 0.156250
vt 0.656250 0.156250
vt 0.375000 0.312500
vt 0.416667 0.312500
vt 0.416667 0.688440
vt 0.375000 0.688440
vt 0.458333 0.312500
vt 0.458333 0.688440
vt 0.500000 0.312500
vt 0.500000 0.688440
vt 0.541667 0.312500
vt 0.541667 0.688440
vt 0.583333 0.312500
vt 0.583333 0.688440
vt 0.625000 0.312500
vt 0.625000 0.688440
vt 0.578125 0.979066
vt 0.421875 0.979066
vt 0.460938 0.911408
vt 0.539063 0.911408
vt 0.343750 0.843750
vt 0.421875 0.843750
vt 0.421875 0.708434
vt 0.460938 0.776092
vt 0.578125 0.708434
vt 0.539063 0.776092
vt 0.656250 0.843750
vt 0.578125 0.843750
vt 0.500000 0.150000
vt 0.500000 0.837500
vt 0.000000 0.000000
vt 1.000000 0.000000
vt 1.000000 1.000000
vt 0.000000 1.000000
vt 0.000000 0.000000
vt 0.000000 1.000000
vt 1.000000 1.000000
vt 1.000000 0.000000
vt 0.000000 0.000000
vt 1.000000 0.000000
vt 1.000000 1.000000
vt 0.000000 1.000000
vt 0.000000 0.000000
vt 1.000000 0.000000
vt 1.000000 1.000000
vt 0.000000 1.000000
vt 0.000000 0.000000
vt 0.000000 1.000000
vt 1.000000 1.000000
vt 1.000000 0.000000
vt 0.000000 0.000000
vt 1.000000 0.000000
vt 1.000000 1.000000
vt 0.000000 1.000000
vt 0.000000 0.000000
vt 1.000000 0.000000
vt 1.000000 1.000000
vt 0.000000 1.000000
vt 0.000000 0.000000
vt 0.000000 1.000000
vt 1.000000 1.000000
vt 1.000000 0.000000
vt 0.000000 0.000000
vt 1.000000 0.000000
vt 1.000000 1.000000
vt 0.000000 1.000000
vt 0.000000 0.000000
vt 1.000000 0.000000
vt 1.000000 1.000000
vt 0.000000 1.000000
vt 0.000000 0.000000
vt 0.000000 1.000000
vt 1.000000 1.000000
vt 1.000000 0.000000
vt 0.000000 0.000000
vt 1.000000 0.000000
vt 1.000000 1.000000
vt 0.000000 1.000000
vn 0.000000 1.000000 0.000000
vn 0.000000 1.000000 0.000000
vn 0.000000 1.000000 0.000000
vn 0.000000 1.000000 0.000000
vn 0.000000 -1.000000 0.000000
vn 0.000000 -1.000000 0.000000
vn 0.000000 -1.000000 0.000000
vn 0.000000 -1.000000 0.000000
vn 0.000000 0.000000 1.000000
vn 0.000000 0.000000 1.000000
vn 0.000000 0.000000 1.000000
vn 0.000000 0.000000 1.000000
vn 1.000000 0.000000 0.000000
vn 1.000000 0.000000 0.000000
vn 1.000000 0.000000 0.000000
vn 1.000000 0.000000 0.000000
vn 0.000000 0.000000 -1.000000
vn 0.000000 0.000000 -1.000000
vn 0.000000 0.000000 -1.000000
vn 0.000000 0.000000 -1.000000
vn -1.000000 0.000000 0.000000
vn -1.000000 0.000000 0.000000
vn -1.000000 0.000000 0.000000
vn -1.000000 0.000000 0.000000
vn 0.000000 1.000000 0.000000
vn 0.000000 1.000000 -0.000000
vn 0.000000 1.000000 -0.000000
vn 0.000000 1.000000 0.000000
vn 0.000000 1.000000 -0.000000
vn 0.000000 1.000000 -0.000000
vn 0.000000 1.000000 -0.000000
vn 0.000000 1.000000 -0.000000
vn 0.000000 -1.000000 0.000000
vn 0.000000 -1.000000 0.000000
vn 0.000000 -1.000000 0.000000
vn 0.000000 -1.000000 0.000000
vn 0.000000 -1.000000 -0.000000
vn 0.000000 -1.000000 -0.000000
vn 0.000000 -1.000000 -0.000000
vn 0.000000 -1.000000 -0.000000
vn 0.000000 0.000000 1.000000
vn 0.000000 0.000000 1.000000
vn 0.000000 0.000000 1.000000
vn 0.000000 0.000000 1.000000
vn 0.000000 0.000000 -1.000000
vn 0.000000 0.000000 -1.000000
vn 0.000000 0.000000 -1.000000
vn 0.000000 0.000000 -1.000000
vn 1.000000 0.000000 0.000000
vn 1.000000 0.000000 0.000000
vn 1.000000 0.000000 0.000000
vn 1.000000 0.000000 0.000000
vn -1.000000 0.000000 0.000000
vn -1.000000 0.000000 0.000000
vn -1.000000 0.000000 0.000000
vn -1.000000 0.000000 0.000000
vn 0.000000 0.000000 -1.000000
vn 0.000000 0.000000 -1.000000
vn 0.000000 0.000000 -1.000000
vn 0.000000 0.000000 -1.000000
vn 0.000000 0.000000 1.000000
vn 0.000000 0.000000 1.000000
vn 0.000000 0.000000 1.000000
vn 0.000000 0.000000 1.000000
vn -1.000000 0.000000 0.000000
vn -1.000000 0.000000 0.000000
vn -1.000000 0.000000 0.000000
vn -1.000000 0.000000 0.000000
vn 1.000000 0.000000 0.000000
vn 1.000000 0.000000 0.000000
vn 1.000000 0.000000 0.000000
vn 1.000000 0.000000 0.000000
vn 1.000000 0.000000 0.000000
vn 1.000000 0.000000 0.000000
vn 1.000000 0.000000 0.000000
vn 1.000000 0.000000 0.000000
vn 1.000000 0.000000 0.000000
vn 1.000000 0.000000 0.000000
vn 1.000000 0.000000 0.000000
vn 1.000000 0.000000 0.000000
vn 1.000000 0.000000 0.000000
vn 1.000000 0.000000 0.000000
vn 1.000000 0.000000 0.000000
vn 1.000000 0.000000 0.000000
vn 0.000000 0.000000 -1.000000
vn 0.000000 0.000000 -1.000000
vn 0.000000 0.000000 -1.000000
vn 0.000000 0.000000 -1.000000
vn 0.000000 -0.866025 -0.500000
vn 0.000000 -0.866025 -0.500000
vn 0.000000 -0.866025 -0.500000
vn 0.000000 -0.866025 -0.500000
vn 0.000000 -0.866025 0.500000
vn 0.000000 -0.866025 0.500000
vn 0.000000 -0.866025 0.500000
vn 0.000000 -0.866025 0.500000
vn 0.000000 0.000000 1.000000
vn 0.000000 0.000000 1.000000
vn 0.000000 0.000000 1.000000
vn 0.000000 0.000000 1.000000
vn 0.000000 0.866025 0.500000
vn 0.000000 0.866025 0.500000
vn 0.000000 0.866025 0.500000
vn 0.000000 0.866025 0.500000
vn 0.000000 0.866026 -0.500000
vn 0.000000 0.866026 -0.500000
vn 0.000000 0.866026 -0.500000
vn 0.000000 0.866026 -0.500000
vn -1.000000 0.000000 0.000000
vn -1.000000 0.000000 0.000000
vn -1.000000 0.000000 0.000000
vn -1.000000 0.000000 0.000000
vn -1.000000 0.000000 0.000000
vn -1.000000 0.000000 0.000000
vn -1.000000 0.000000 0.000000
vn -1.000000 0.000000 0.000000
vn -1.000000 0.000000 0.000000
vn -1.000000 0.000000 0.000000
vn -1.000000 0.000000 0.000000
vn -1.000000 0.000000 0.000000
vn 1.000000 0.000000 0.000000
vn -1.000000 0.000000 0.000000
vn 0.000000 1.000000 0.000000
vn 0.000000 1.000000 0.000000
vn 0.000000 1.000000 0.000000
vn 0.000000 1.000000 0.000000
vn 0.000000 -1.000000 0.000000
vn 0.000000 -1.000000 0.000000
vn 0.000000 -1.000000 0.000000
vn 0.000000 -1.000000 0.000000
vn 0.000000 0.000000 1.000000
vn 0.000000 0.000000 1.000000
vn 0.000000 0.000000 1.000000
vn 0.000000 0.000000 1.000000
vn 1.000000 0.000000 0.000000
vn 1.000000 0.000000 0.000000
vn 1.000000 0.000000 0.000000
vn 1.000000 0.000000 0.000000
vn 0.000000 0.000000 -1.000000
vn 0.000000 0.000000 -1.000000
vn 0.000000 0.000000 -1.000000
vn 0.000000 0.000000 -1.000000
vn -1.000000 0.000000 0.000000
vn -1.000000 0.000000 0.000000
vn -1.000000 0.000000 0.000000
vn -1.000000 0.000000 0.000000
vn 0.000000 1.000000 0.000000
vn 0.000000 1.000000 0.000000
vn 0.000000 1.000000 0.000000
vn 0.000000 1.000000 0.000000
vn 0.000000 -1.000000 0.000000
vn 0.000000 -1.000000 0.000000
vn 0.000000 -1.000000 0.000000
vn 0.000000 -1.000000 0.000000
vn 0.000000 0.000000 1.000000
vn 0.000000 0.000000 1.000000
vn 0.000000 0.000000 1.000000
vn 0.000000 0.000000 1.000000
vn 1.000000 0.000000 0.000000
vn 1.000000 0.000000 0.000000
vn 1.000000 0.000000 0.000000
vn 1.000000 0.000000 0.000000
vn 0.000000 0.000000 -1.000000
vn 0.000000 0.000000 -1.000000
vn 0.000000 0.000000 -1.000000
vn 0.000000 0.000000 -1.000000
vn -1.000000 0.000000 0.000000
vn -1.000000 0.000000 0.000000
vn -1.000000 0.000000 0.000000
vn -1.000000 0.000000 0.000000
vn 1.000000 0.000000 0.000000
vn 1.000000 0.000000 0.000000
vn 1.000000 0.000000 0.000000
vn 1.000000 0.000000 0.000000
vn 1.000000 0.000000 0.000000
vn 1.000000 0.000000 0.000000
vn 1.000000 0.000000 0.000000
vn 1.000000 0.000000 0.000000
vn 1.000000 0.000000 0.000000
vn 1.000000 0.000000 0.000000
vn 1.000000 0.000000 0.000000
vn 1.000000 0.000000 0.000000
vn 0.000000 0.000000 -1.000000
vn 0.000000 0.000000 -1.000000
vn 0.000000 0.000000 -1.000000
vn 0.000000 0.000000 -1.000000
vn 0.000000 -0.866025 -0.500000
vn 0.000000 -0.866025 -0.500000
vn 0.000000 -0.866025 -0.500000
vn 0.000000 -0.866025 -0.500000
vn 0.000000 -0.866025 0.500000
vn 0.000000 -0.866025 0.500000
vn 0.000000 -0.866025 0.500000
vn 0.000000 -0.866025 0.500000
vn 0.000000 0.000000 1.000000
vn 0.000000 0.000000 1.000000
vn 0.000000 0.000000 1.000000
vn 0.000000 0.000000 1.000000
vn 0.000000 0.866025 0.500000
vn 0.000000 0.866025 0.500000
vn 0.000000 0.866025 0.500000
vn 0.000000 0.866025 0.500000
vn 0.000000 0.866026 -0.500000
vn 0.000000 0.866026 -0.500000
vn 0.000000 0.866026 -0.500000
vn 0.000000 0.866026 -0.500000
vn -1.000000 0.000000 0.000000
vn -1.000000 0.000000 0.000000
vn -1.000000 0.000000 0.000000
vn -1.000000 0.000000 0.000000
vn -1.000000 0.000000 0.000000
vn -1.000000 0.000000 0.000000
vn -1.000000 0.000000 0.000000
vn -1.000000 0.000000 0.000000
vn -1.000000 0.000000 0.000000
vn -1.000000 0.000000 0.000000
vn -1.000000 0.000000 0.000000
vn -1.000000 0.000000 0.000000
vn 1.000000 0.000000 0.000000
vn -1.000000 0.000000 0.000000
vn 0.000000 1.000000 0.000000
vn 0.000000 1.000000 0.000000
vn 0.000000 1.000000 0.000000
vn 0.000000 1.000000 0.000000
vn 0.000000 -1.000000 0.000000
vn 0.000000 -1.000000 0.000000
vn 0.000000 -1.000000 0.000000
vn 0.000000 -1.000000 0.000000
vn 0.000000 0.000000 1.000000
vn 0.000000 0.000000 1.000000
vn 0.000000 0.000000 1.000000
vn 0.000000 0.000000 1.000000
vn 1.000000 0.000000 0.000000
vn 1.000000 0.000000 0.000000
vn 1.000000 0.000000 0.000000
vn 1.000000 0.000000 0.000000
vn 0.000000 0.000000 -1.000000
vn 0.000000 0.000000 -1.000000
vn 0.000000 0.000000 -1.000000
vn 0.000000 0.000000 -1.000000
vn -1.000000 0.000000 0.000000
vn -1.000000 0.000000 0.000000
vn -1.000000 0.000000 0.000000
vn -1.000000 0.000000 0.000000
vn 0.000000 1.000000 0.000000
vn 0.000000 1.000000 0.000000
vn 0.000000 1.000000 0.000000
vn 0.000000 1.000000 0.000000
vn 0.000000 -1.000000 0.000000
vn 0.000000 -1.000000 0.000000
vn 0.000000 -1.000000 0.000000
vn 0.000000 -1.000000 0.000000
vn 0.000000 0.000000 1.000000
vn 0.000000 0.000000 1.000000
vn 0.000000 0.000000 1.000000
vn 0.000000 0.000000 1.000000
vn 1.000000 0.000000 0.000000
vn 1.000000 0.000000 0.000000
vn 1.000000 0.000000 0.000000
vn 1.000000 0.000000 0.000000
vn 0.000000 0.000000 -1.000000
vn 0.000000 0.000000 -1.000000
vn 0.000000 0.000000 -1.000000
vn 0.000000 0.000000 -1.000000
vn -1.000000 0.000000 0.000000
vn -1.000000 0.000000 0.000000
vn -1.000000 0.000000 0.000000
vn -1.000000 0.000000 0.000000
vn 0.000000 1.000000 0.000000
vn 0.000000 1.000000 0.000000
vn 0.000000 1.000000 0.000000
vn 0.000000 1.000000 0.000000
vn 0.000000 -1.000000 0.000000
vn 0.000000 -1.000000 0.000000
vn 0.000000 -1.000000 0.000000
vn 0.000000 -1.000000 0.000000
vn 0.000000 0.000000 1.000000
vn 0.000000 0.000000 1.000000
vn 0.000000 0.000000 1.000000
vn 0.000000 0.000000 1.000000
vn 1.000000 0.000000 0.000000
vn 1.000000 0.000000 0.000000
vn 1.000000 0.000000 0.000000
vn 1.000000 0.000000 0.000000
vn 0.000000 0.000000 -1.000000
vn 0.000000 0.000000 -1.000000
vn 0.000000 0.000000 -1.000000
vn 0.000000 0.000000 -1.000000
vn -1.000000 0.000000 0.000000
vn -1.000000 0.000000 0.000000
vn -1.000000 0.000000 0.000000
vn -1.000000 0.000000 0.000000
vn 0.000000 1.000000 0.000000
vn 0.000000 1.000000 0.000000
vn 0.000000 1.000000 0.000000
vn 0.000000 1.000000 0.000000
vn 0.000000 -1.000000 0.000000
vn 0.000000 -1.000000 0.000000
vn 0.000000 -1.000000 0.000000
vn 0.000000 -1.000000 0.000000
vn 0.000000 0.000000 1.000000
vn 0.000000 0.000000 1.000000
vn 0.000000 0.000000 1.000000
vn 0.000000 0.000000 1.000000
vn 1.000000 0.000000 0.000000
vn 1.000000 0.000000 0.000000
vn 1.000000 0.000000 0.000000
vn 1.000000 0.000000 0.000000
vn 0.000000 0.000000 -1.000000
vn 0.000000 0.000000 -1.000000
vn 0.000000 0.000000 -1.000000
vn 0.000000 0.000000 -1.000000
vn -1.000000 0.000000 0.000000
vn -1.000000 0.000000 0.000000
vn -1.000000 0.000000 0.000000
vn -1.000000 0.000000 0.000000
s off
g pPlane9
usemtl lambert9SG
f 5/9/1 6/10/2 7/11/3 8/12/4
f 1/5/5 3/8/6 4/7/7 2/6/8
f 1/1/9 2/2/10 6/10/11 5/9/12
usemtl lambert8SG
f 2/2/13 4/4/14 7/11/15 6/10/16
usemtl lambert9SG
f 4/4/17 3/3/18 8/12/19 7/11/20
usemtl lambert8SG
f 3/3/21 1/1/22 5/9/23 8/12/24
s 1
f 17/13/25 18/14/26 19/15/27 20/16/28
f 18/14/26 21/17/29 22/18/30 19/15/27
f 21/17/29 23/19/31 24/20/32 22/18/30
f 23/19/31 17/13/25 20/16/28 24/20/32
s 2
f 9/21/33 13/22/34 14/23/35 10/24/36
f 10/24/36 14/23/35 15/25/37 12/26/38
f 12/26/38 15/25/37 16/27/39 11/28/40
f 11/28/40 16/27/39 13/22/34 9/21/33
s off
f 9/29/41 10/30/42 18/14/43 17/13/44
f 14/31/45 13/32/46 20/16/47 19/15/48
f 10/30/49 12/33/50 21/17/51 18/14/52
f 15/34/53 14/31/54 19/15/55 22/18/56
f 12/33/57 11/35/58 23/19/59 21/17/60
f 16/36/61 15/34/62 22/18/63 24/20/64
f 11/35/65 9/29/66 17/13/67 23/19/68
f 13/32/69 16/36/70 24/20/71 20/16/72
s 3
f 25/37/73 26/38/74 32/39/75 31/40/76
f 26/38/74 27/41/77 33/42/78 32/39/75
f 27/41/77 28/43/79 34/44/80 33/42/78
f 28/43/79 29/45/81 35/46/82 34/44/80
f 29/45/81 30/47/83 36/48/84 35/46/82
f 30/47/83 25/37/73 31/40/76 36/48/84
s off
f 31/49/85 32/50/86 38/51/87 37/52/88
f 32/50/89 33/53/90 39/54/91 38/51/92
f 33/53/93 34/55/94 40/56/95 39/54/96
f 34/55/97 35/57/98 41/58/99 40/56/100
f 35/57/101 36/59/102 42/60/103 41/58/104
f 36/59/105 31/61/106 37/62/107 42/60/108
s 4
f 37/63/109 38/64/110 44/65/111 43/66/112
f 38/64/110 39/67/113 45/68/114 44/65/111
f 39/67/113 40/69/115 46/70/116 45/68/114
f 40/69/115 41/71/117 47/72/118 46/70/116
f 41/71/117 42/73/119 48/74/120 47/72/118
f 42/73/119 37/63/109 43/66/112 48/74/120
s 3
f 26/38/74 25/37/73 49/75/121
f 27/41/77 26/38/74 49/75/121
f 28/43/79 27/41/77 49/75/121
f 29/45/81 28/43/79 49/75/121
f 30/47/83 29/45/81 49/75/121
f 25/37/73 30/47/83 49/75/121
s 4
f 43/66/112 44/65/111 50/76/122
f 44/65/111 45/68/114 50/76/122
f 45/68/114 46/70/116 50/76/122
f 46/70/116 47/72/118 50/76/122
f 47/72/118 48/74/120 50/76/122
f 48/74/120 43/66/112 50/76/122
s off
usemtl lambert9SG
f 55/77/123 56/78/124 57/79/125 58/80/126
f 51/81/127 53/82/128 54/83/129 52/84/130
f 51/85/131 52/86/132 56/78/133 55/77/134
usemtl lambert8SG
f 52/86/135 54/87/136 57/79/137 56/78/138
usemtl lambert9SG
f 54/87/139 53/88/140 58/80/141 57/79/142
usemtl lambert8SG
f 53/88/143 51/85/144 55/77/145 58/80/146
usemtl lambert9SG
f 63/89/147 64/90/148 65/91/149 66/92/150
f 59/93/151 61/94/152 62/95/153 60/96/154
f 59/97/155 60/98/156 64/90/157 63/89/158
usemtl lambert8SG
f 60/98/159 62/99/160 65/91/161 64/90/162
usemtl lambert9SG
f 62/99/163 61/100/164 66/92/165 65/91/166
usemtl lambert8SG
f 61/100/167 59/97/168 63/89/169 66/92/170
s 5
f 67/101/171 68/102/172 74/103/173 73/104/174
f 68/102/172 69/105/175 75/106/176 74/103/173
f 69/105/175 70/107/177 76/108/178 75/106/176
f 70/107/177 71/109/179 77/110/180 76/108/178
f 71/109/179 72/111/181 78/112/182 77/110/180
f 72/111/181 67/101/171 73/104/174 78/112/182
s off
f 73/113/183 74/114/184 80/115/185 79/116/186
f 74/114/187 75/117/188 81/118/189 80/115/190
f 75/117/191 76/119/192 82/120/193 81/118/194
f 76/119/195 77/121/196 83/122/197 82/120/198
f 77/121/199 78/123/200 84/124/201 83/122/202
f 78/123/203 73/125/204 79/126/205 84/124/206
s 6
f 79/127/207 80/128/208 86/129/209 85/130/210
f 80/128/208 81/131/211 87/132/212 86/129/209
f 81/131/211 82/133/213 88/134/214 87/132/212
f 82/133/213 83/135/215 89/136/216 88/134/214
f 83/135/215 84/137/217 90/138/218 89/136/216
f 84/137/217 79/127/207 85/130/210 90/138/218
s 5
f 68/102/172 67/101/171 91/139/219
f 69/105/175 68/102/172 91/139/219
f 70/107/177 69/105/175 91/139/219
f 71/109/179 70/107/177 91/139/219
f 72/111/181 71/109/179 91/139/219
f 67/101/171 72/111/181 91/139/219
s 6
f 85/130/210 86/129/209 92/140/220
f 86/129/209 87/132/212 92/140/220
f 87/132/212 88/134/214 92/140/220
f 88/134/214 89/136/216 92/140/220
f 89/136/216 90/138/218 92/140/220
f 90/138/218 85/130/210 92/140/220
s off
usemtl lambert9SG
f 97/141/221 98/142/222 99/143/223 100/144/224
f 93/145/225 95/146/226 96/147/227 94/148/228
f 93/149/229 94/150/230 98/142/231 97/141/232
usemtl lambert8SG
f 94/150/233 96/151/234 99/143/235 98/142/236
usemtl lambert9SG
f 96/151/237 95/152/238 100/144/239 99/143/240
usemtl lambert8SG
f 95/152/241 93/149/242 97/141/243 100/144/244
usemtl lambert9SG
f 105/153/245 106/154/246 107/155/247 108/156/248
f 101/157/249 103/158/250 104/159/251 102/160/252
f 101/161/253 102/162/254 106/154/255 105/153/256
usemtl lambert8SG
f 102/162/257 104/163/258 107/155/259 106/154/260
usemtl lambert9SG
f 104/163/261 103/164/262 108/156/263 107/155/264
usemtl lambert8SG
f 103/164/265 101/161/266 105/153/267 108/156/268
usemtl lambert9SG
f 113/165/269 114/166/270 115/167/271 116/168/272
f 109/169/273 111/170/274 112/171/275 110/172/276
f 109/173/277 110/174/278 114/166/279 113/165/280
usemtl lambert8SG
f 110/174/281 112/175/282 115/167/283 114/166/284
usemtl lambert9SG
f 112/175/285 111/176/286 116/168/287 115/167/288
usemtl lambert8SG
f 111/176/289 109/173/290 113/165/291 116/168/292
usemtl lambert9SG
f 121/177/293 122/178/294 123/179/295 124/180/296
f 117/181/297 119/182/298 120/183/299 118/184/300
f 117/185/301 118/186/302 122/178/303 121/177/304
usemtl lambert8SG
f 118/186/305 120/187/306 123/179/307 122/178/308
usemtl lambert9SG
f 120/187/309 119/188/310 124/180/311 123/179/312
usemtl lambert8SG
f 119/188/313 117/185/314 121/177/315 124/180/316
